<svg width="625" height="416" viewBox="0 0 625 416" fill="none" xmlns="http://www.w3.org/2000/svg">
<g filter="url(#filter0_d)">
<path d="M15 19C15 14.5817 18.5817 11 23 11H602C606.418 11 610 14.5817 610 19V397H15V19Z" fill="#D9D9D9"/>
</g>
<path d="M36.5385 114.491C36.5385 110.073 40.1202 106.491 44.5385 106.491H580.462C584.88 106.491 588.462 110.073 588.462 114.491V397H36.5385V114.491Z" fill="white"/>
<rect x="61.7692" y="205.672" width="361.462" height="53.1429" rx="4" fill="#4D95FF" stroke="#979797" stroke-width="2"/>
<ellipse cx="42.3594" cy="30.904" rx="9.29688" ry="9.28855" fill="#FF8F8F"/>
<ellipse cx="70.25" cy="30.904" rx="9.29688" ry="9.28855" fill="#F5E65F"/>
<ellipse cx="98.1406" cy="30.904" rx="9.29688" ry="9.28855" fill="#A6F899"/>
<rect x="36.25" y="53.4619" width="506.812" height="18.0463" fill="white"/>
<g clip-path="url(#clip0)">
<path d="M562.895 56.2927V60.5389H567.145" stroke="#535353" stroke-width="2" stroke-linecap="round" stroke-linejoin="round"/>
<path d="M578.479 67.6158V63.3696H574.229" stroke="#535353" stroke-width="2" stroke-linecap="round" stroke-linejoin="round"/>
<path d="M576.701 59.8312C576.341 58.8169 575.731 57.9101 574.926 57.1953C574.121 56.4805 573.148 55.9811 572.098 55.7437C571.047 55.5063 569.954 55.5385 568.92 55.8375C567.885 56.1364 566.943 56.6923 566.182 57.4533L562.895 60.5389M578.479 63.3697L575.192 66.4552C574.431 67.2162 573.489 67.7721 572.454 68.0711C571.42 68.37 570.326 68.4023 569.276 68.1649C568.226 67.9274 567.253 67.428 566.448 66.7133C565.643 65.9985 565.032 65.0917 564.673 64.0774" stroke="#535353" stroke-width="2" stroke-linecap="round" stroke-linejoin="round"/>
</g>
<rect x="449.665" y="207.515" width="105.286" height="45.4237" rx="22.7118" fill="#FDDB26"/>
<path d="M482.46 235.128C480.7 235.128 479.292 234.653 478.236 233.704L478.748 232.696C479.303 233.165 479.868 233.501 480.444 233.704C481.031 233.907 481.708 234.008 482.476 234.008C483.383 234.008 484.082 233.832 484.572 233.48C485.063 233.128 485.308 232.632 485.308 231.992C485.308 231.619 485.191 231.315 484.956 231.08C484.722 230.845 484.412 230.659 484.028 230.52C483.644 230.381 483.127 230.237 482.476 230.088C481.602 229.885 480.882 229.672 480.316 229.448C479.762 229.224 479.308 228.904 478.956 228.488C478.615 228.072 478.444 227.528 478.444 226.856C478.444 226.216 478.61 225.651 478.94 225.16C479.282 224.659 479.762 224.275 480.38 224.008C481.01 223.731 481.735 223.592 482.556 223.592C483.335 223.592 484.06 223.715 484.732 223.96C485.415 224.205 485.991 224.557 486.46 225.016L485.964 226.024C485.431 225.565 484.887 225.235 484.332 225.032C483.788 224.819 483.196 224.712 482.556 224.712C481.682 224.712 480.994 224.899 480.492 225.272C480.002 225.635 479.756 226.147 479.756 226.808C479.756 227.373 479.975 227.8 480.412 228.088C480.85 228.376 481.511 228.621 482.396 228.824C483.367 229.059 484.13 229.277 484.684 229.48C485.239 229.672 485.698 229.965 486.06 230.36C486.434 230.755 486.62 231.283 486.62 231.944C486.62 232.584 486.45 233.144 486.108 233.624C485.778 234.104 485.298 234.477 484.668 234.744C484.039 235 483.303 235.128 482.46 235.128ZM495.087 231.304H489.391C489.434 232.211 489.679 232.899 490.127 233.368C490.575 233.827 491.21 234.056 492.031 234.056C492.938 234.056 493.77 233.747 494.527 233.128L494.959 234.072C494.618 234.392 494.181 234.648 493.647 234.84C493.114 235.021 492.57 235.112 492.015 235.112C490.799 235.112 489.839 234.755 489.135 234.04C488.442 233.325 488.095 232.339 488.095 231.08C488.095 230.28 488.25 229.576 488.559 228.968C488.869 228.349 489.301 227.869 489.855 227.528C490.421 227.187 491.061 227.016 491.775 227.016C492.81 227.016 493.621 227.357 494.207 228.04C494.794 228.712 495.087 229.64 495.087 230.824V231.304ZM491.791 228.024C491.109 228.024 490.559 228.237 490.143 228.664C489.738 229.091 489.498 229.693 489.423 230.472H493.951C493.93 229.683 493.733 229.08 493.359 228.664C492.986 228.237 492.463 228.024 491.791 228.024ZM500.165 227.016C501.157 227.016 501.893 227.272 502.373 227.784C502.864 228.285 503.109 229.053 503.109 230.088V235H501.845V233.672C501.642 234.131 501.333 234.488 500.917 234.744C500.501 234.989 500.021 235.112 499.477 235.112C498.976 235.112 498.512 235.011 498.085 234.808C497.669 234.605 497.338 234.323 497.093 233.96C496.848 233.597 496.725 233.197 496.725 232.76C496.725 232.173 496.874 231.72 497.173 231.4C497.472 231.069 497.962 230.835 498.645 230.696C499.328 230.547 500.277 230.472 501.493 230.472H501.845V229.944C501.845 229.293 501.712 228.824 501.445 228.536C501.178 228.237 500.746 228.088 500.149 228.088C499.253 228.088 498.362 228.365 497.477 228.92L497.045 227.976C497.45 227.688 497.936 227.459 498.501 227.288C499.077 227.107 499.632 227.016 500.165 227.016ZM499.653 234.088C500.293 234.088 500.816 233.875 501.221 233.448C501.637 233.011 501.845 232.451 501.845 231.768V231.304H501.557C500.618 231.304 499.904 231.347 499.413 231.432C498.922 231.507 498.57 231.64 498.357 231.832C498.154 232.013 498.053 232.285 498.053 232.648C498.053 233.064 498.202 233.411 498.501 233.688C498.81 233.955 499.194 234.088 499.653 234.088ZM509.897 228.136L509.049 228.216C508.249 228.291 507.668 228.541 507.305 228.968C506.953 229.395 506.777 229.923 506.777 230.552V235H505.481V227.208H506.745V228.568C507.183 227.661 508.041 227.155 509.321 227.048L509.785 227.016L509.897 228.136ZM514.262 235.112C513.494 235.112 512.827 234.947 512.262 234.616C511.696 234.285 511.259 233.821 510.95 233.224C510.651 232.616 510.502 231.907 510.502 231.096C510.502 230.285 510.656 229.576 510.966 228.968C511.286 228.349 511.728 227.869 512.294 227.528C512.87 227.187 513.542 227.016 514.31 227.016C514.832 227.016 515.344 227.112 515.846 227.304C516.347 227.485 516.752 227.731 517.062 228.04L516.63 229C515.894 228.403 515.147 228.104 514.39 228.104C513.59 228.104 512.966 228.365 512.518 228.888C512.07 229.411 511.846 230.147 511.846 231.096C511.846 232.035 512.07 232.76 512.518 233.272C512.966 233.784 513.59 234.04 514.39 234.04C515.147 234.04 515.894 233.741 516.63 233.144L517.062 234.104C516.731 234.413 516.315 234.659 515.814 234.84C515.312 235.021 514.795 235.112 514.262 235.112ZM522.542 227.016C524.409 227.016 525.342 228.045 525.342 230.104V235H524.046V230.184C524.046 229.459 523.902 228.931 523.614 228.6C523.337 228.269 522.889 228.104 522.27 228.104C521.555 228.104 520.985 228.323 520.558 228.76C520.131 229.197 519.918 229.789 519.918 230.536V235H518.622V223.72H519.918V228.456C520.174 227.987 520.526 227.629 520.974 227.384C521.433 227.139 521.955 227.016 522.542 227.016Z" fill="#808080"/>
<rect x="81.5265" y="217" width="2.00179" height="29" fill="#252525"/>
<defs>
<filter id="filter0_d" x="0" y="0" width="625" height="416" filterUnits="userSpaceOnUse" color-interpolation-filters="sRGB">
<feFlood flood-opacity="0" result="BackgroundImageFix"/>
<feColorMatrix in="SourceAlpha" type="matrix" values="0 0 0 0 0 0 0 0 0 0 0 0 0 0 0 0 0 0 127 0"/>
<feOffset dy="4"/>
<feGaussianBlur stdDeviation="7.5"/>
<feColorMatrix type="matrix" values="0 0 0 0 0 0 0 0 0 0 0 0 0 0 0 0 0 0 0.25 0"/>
<feBlend mode="normal" in2="BackgroundImageFix" result="effect1_dropShadow"/>
<feBlend mode="normal" in="SourceGraphic" in2="effect1_dropShadow" result="shape"/>
</filter>
<clipPath id="clip0">
<rect width="17" height="16.9848" fill="white" transform="translate(562.188 53.4619)"/>
</clipPath>
</defs>
</svg>
