<svg width="66" height="20" viewBox="0 0 66 20" fill="none" xmlns="http://www.w3.org/2000/svg">
<g clip-path="url(#clip0)">
<path fill-rule="evenodd" clip-rule="evenodd" d="M40.9451 15.6406C37.1097 18.4833 31.5506 20 26.7643 20C20.0531 20 14.0113 17.504 9.44045 13.3526C9.08134 13.0261 9.4031 12.5813 9.83405 12.8355C14.7669 15.7215 20.8661 17.4578 27.1665 17.4578C31.4156 17.4578 36.0898 16.5737 40.3877 14.7393C41.037 14.4619 41.58 15.1668 40.9451 15.6406" fill="#FF9900"/>
<path fill-rule="evenodd" clip-rule="evenodd" d="M42.5396 13.8062C42.0512 13.1764 39.2989 13.5086 38.0636 13.6559C37.6872 13.7022 37.6298 13.3728 37.9688 13.1359C40.1608 11.5846 43.7577 12.0324 44.1772 12.5524C44.5966 13.0753 44.068 16.7009 42.0081 18.4313C41.6921 18.6971 41.3904 18.5555 41.5312 18.2031C41.9937 17.0417 43.0309 14.4388 42.5396 13.8062" fill="#FF9900"/>
<path fill-rule="evenodd" clip-rule="evenodd" d="M38.1497 2.18405V0.67603C38.1497 0.447806 38.3221 0.294693 38.5289 0.294693H45.243C45.4584 0.294693 45.6308 0.450695 45.6308 0.67603V1.96738C45.6279 2.18405 45.4469 2.46716 45.1252 2.91494L41.646 7.90988C42.9389 7.87811 44.3035 8.07166 45.4757 8.73611C45.74 8.88634 45.8118 9.10589 45.8319 9.32257V10.9317C45.8319 11.1513 45.5906 11.4084 45.3378 11.2755C43.2721 10.1864 40.5285 10.0679 38.2445 11.287C38.0118 11.4141 37.7676 11.1599 37.7676 10.9404V9.41212C37.7676 9.16656 37.7704 8.74767 38.0146 8.375L42.0454 2.56249H38.5375C38.3221 2.56249 38.1497 2.40938 38.1497 2.18405" fill="black"/>
<path fill-rule="evenodd" clip-rule="evenodd" d="M13.658 11.5932H11.6154C11.42 11.5788 11.2649 11.4315 11.2505 11.2437V0.702017C11.2505 0.491126 11.4257 0.323567 11.6441 0.323567H13.5488C13.7471 0.332228 13.9051 0.485346 13.9195 0.676014V2.05403H13.9568C14.4538 0.722237 15.3875 0.10112 16.6459 0.10112C17.9243 0.10112 18.723 0.722237 19.2976 2.05403C19.7917 0.722237 20.9151 0.10112 22.1188 0.10112C22.975 0.10112 23.9115 0.456457 24.4832 1.2538C25.1297 2.1407 24.9975 3.42915 24.9975 4.55872L24.9946 11.2119C24.9946 11.4228 24.8194 11.5932 24.601 11.5932H22.5613C22.3573 11.5788 22.1935 11.4141 22.1935 11.2119V5.62473C22.1935 5.17984 22.2337 4.07049 22.1361 3.64871C21.9838 2.94093 21.527 2.74159 20.9352 2.74159C20.441 2.74159 19.9239 3.07382 19.7142 3.60538C19.5044 4.13694 19.5246 5.02672 19.5246 5.62473V11.2119C19.5246 11.4228 19.3493 11.5932 19.131 11.5932H17.0912C16.8843 11.5788 16.7234 11.4141 16.7234 11.2119L16.7206 5.62473C16.7206 4.44894 16.9131 2.71848 15.4622 2.71848C13.9941 2.71848 14.0516 4.40561 14.0516 5.62473V11.2119C14.0516 11.4228 13.8764 11.5932 13.658 11.5932" fill="black"/>
<path fill-rule="evenodd" clip-rule="evenodd" d="M51.4112 0.10112C54.4421 0.10112 56.0825 2.71848 56.0825 6.04651C56.0825 9.26188 54.2697 11.8128 51.4112 11.8128C48.4348 11.8128 46.8145 9.19543 46.8145 5.93384C46.8145 2.65203 48.4549 0.10112 51.4112 0.10112V0.10112ZM51.4284 2.25336C49.923 2.25336 49.8282 4.31605 49.8282 5.60162C49.8282 6.89008 49.8081 9.64033 51.4112 9.64033C52.9941 9.64033 53.0688 7.42164 53.0688 6.06962C53.0688 5.17984 53.0315 4.11672 52.7643 3.27315C52.5345 2.53937 52.0777 2.25336 51.4284 2.25336" fill="black"/>
<path fill-rule="evenodd" clip-rule="evenodd" d="M60.0128 11.5932H57.9788C57.7748 11.5788 57.611 11.4141 57.611 11.2119L57.6082 0.667348C57.6254 0.47379 57.7949 0.323567 58.0017 0.323567H59.895C60.0731 0.332228 60.2197 0.453569 60.2599 0.618237V2.23025H60.2972C60.8689 0.788683 61.6705 0.10112 63.0811 0.10112C63.9976 0.10112 64.8911 0.433346 65.4656 1.34335C66 2.18692 66 3.60538 66 4.62516V11.261C65.977 11.4459 65.8075 11.5932 65.6064 11.5932H63.558C63.3713 11.5788 63.2161 11.4401 63.196 11.261V5.53517C63.196 4.3825 63.3282 2.69537 61.9176 2.69537C61.4205 2.69537 60.9637 3.03048 60.7368 3.53893C60.4495 4.18316 60.4121 4.8245 60.4121 5.53517V11.2119C60.4093 11.4228 60.2311 11.5932 60.0128 11.5932" fill="black"/>
<path fill-rule="evenodd" clip-rule="evenodd" d="M32.7974 6.55786C32.7974 7.35809 32.8175 8.02543 32.4153 8.73611C32.0906 9.31389 31.5735 9.66923 31.0018 9.66923C30.2175 9.66923 29.7578 9.06833 29.7578 8.18143C29.7578 6.43075 31.3178 6.11297 32.7974 6.11297V6.55786V6.55786ZM34.8573 11.5644C34.7222 11.6857 34.5269 11.6944 34.3746 11.6135C33.6966 11.0472 33.5731 10.7844 33.2025 10.2441C32.082 11.3939 31.2862 11.7377 29.8354 11.7377C28.1145 11.7377 26.7786 10.6717 26.7786 8.53677C26.7786 6.86987 27.6749 5.73452 28.9563 5.17985C30.0652 4.68873 31.6137 4.60206 32.7974 4.46629V4.2005C32.7974 3.71228 32.8347 3.13449 32.5474 2.71271C32.3003 2.33426 31.8234 2.17826 31.4011 2.17826C30.6226 2.17826 29.9302 2.57982 29.7607 3.41183C29.7262 3.59672 29.5912 3.77872 29.4044 3.78739L27.425 3.57361C27.2583 3.53605 27.0716 3.40027 27.1204 3.14316C27.5744 0.728025 29.7463 1.52588e-05 31.6884 1.52588e-05C32.6824 1.52588e-05 33.981 0.265796 34.7653 1.02269C35.7594 1.95581 35.6646 3.20094 35.6646 4.55584V7.75676C35.6646 8.71877 36.061 9.14055 36.4345 9.66056C36.5638 9.84545 36.5925 10.0679 36.4259 10.2066C36.0093 10.5561 35.2681 11.2061 34.8601 11.5701L34.8573 11.5643" fill="black"/>
<path fill-rule="evenodd" clip-rule="evenodd" d="M6.01881 6.55806C6.01881 7.35829 6.03891 8.02563 5.6367 8.73631C5.31206 9.31409 4.79781 9.66943 4.22322 9.66943C3.43891 9.66943 2.98211 9.06853 2.98211 8.18163C2.98211 6.43095 4.54211 6.11317 6.01881 6.11317V6.55806V6.55806ZM8.0787 11.5646C7.94367 11.6859 7.74831 11.6946 7.59605 11.6137C6.91803 11.0474 6.79737 10.7846 6.42389 10.2443C5.30344 11.3941 4.51051 11.7379 3.0568 11.7379C1.33879 11.7379 0 10.6719 0 8.53697C0 6.87007 0.899229 5.73472 2.17769 5.18005C3.28664 4.68893 4.83515 4.60226 6.01881 4.46648V4.2007C6.01881 3.71247 6.05615 3.13469 5.77173 2.71291C5.52179 2.33446 5.04488 2.17846 4.62543 2.17846C3.84686 2.17846 3.15161 2.58002 2.98211 3.41203C2.94763 3.59692 2.81261 3.77892 2.62874 3.78759L0.646411 3.57381C0.47978 3.53625 0.295912 3.40047 0.341879 3.14336C0.798677 0.728223 2.96774 0.000213623 4.90985 0.000213623C5.90389 0.000213623 7.20245 0.265995 7.98677 1.02289C8.9808 1.95601 8.886 3.20114 8.886 4.55604V7.75696C8.886 8.71897 9.28246 9.14075 9.65595 9.66076C9.7881 9.84565 9.81683 10.0681 9.6502 10.2068C9.23362 10.5563 8.4924 11.2063 8.08444 11.5703L8.0787 11.5645" fill="black"/>
</g>
<defs>
<clipPath id="clip0">
<rect width="66" height="20" fill="white"/>
</clipPath>
</defs>
</svg>
