<svg width="51" height="63" viewBox="0 0 51 63" fill="none" xmlns="http://www.w3.org/2000/svg">
<path d="M42.5822 33.4706C42.5112 25.5042 49.0528 21.6796 49.3487 21.4932C45.6676 16.0778 39.9387 15.3359 37.895 15.2486C33.0223 14.7527 28.3824 18.1328 25.9125 18.1328C23.4426 18.1328 19.6234 15.32 15.5832 15.3994C10.2647 15.4787 5.36837 18.5058 2.6302 23.2904C-2.88954 32.9191 1.22166 47.1896 6.59542 55.0053C9.22706 58.8258 12.3598 63.1304 16.4788 62.9717C20.448 62.813 21.9473 60.3929 26.7371 60.3929C31.5269 60.3929 32.8763 62.9717 37.0703 62.8963C41.3354 62.813 44.042 58.9924 46.6539 55.16C49.6683 50.7245 50.9151 46.4319 50.9861 46.2057C50.8914 46.1661 42.669 42.9962 42.5822 33.4706" fill="#B3B3B3"/>
<path d="M34.703 10.0784C36.8887 7.4163 38.3643 3.71472 37.9579 0.025238C34.8092 0.15233 30.9981 2.1359 28.7372 4.79799C26.7132 7.15073 24.9378 10.9196 25.4189 14.534C28.9305 14.8077 32.5168 12.7366 34.703 10.0784" fill="#B3B3B3"/>
</svg>
