<svg width="88" height="17" viewBox="0 0 88 17" fill="none" xmlns="http://www.w3.org/2000/svg">
<path d="M5.61318 16.6956H2.30056V8.48738H0.0439453V5.81493H2.30047V3.91329C2.30047 1.65985 3.29854 0.0436935 6.60219 0.0436935C7.30091 0.0436935 8.39788 0.183682 8.39788 0.183682V2.6652H7.2457C6.07172 2.6652 5.61335 3.02015 5.61335 4.00146V5.81493H8.35392L8.10988 8.48738H5.61326L5.61318 16.6956ZM13.2141 5.60136C13.1658 5.60136 13.1161 5.60311 13.067 5.60434C9.99533 5.60434 8.58997 7.90095 8.58997 11.161C8.58997 15.2679 10.4129 16.9116 13.091 16.9116C14.6232 16.9116 15.6299 16.2705 16.2417 15.0742V16.6968H19.3925V5.81607H16.2417V7.48937C15.7421 6.41281 14.7073 5.61412 13.2141 5.60136ZM14.0152 8.17245C15.3053 8.17245 16.0796 9.0669 16.0796 10.5883L16.0826 12.1423C16.0826 13.1677 15.4431 14.3674 14.0152 14.3674C11.82 14.3674 11.8787 12.0114 11.8787 11.2267C11.8787 8.58708 13.0483 8.17245 14.0152 8.17245ZM20.665 11.257C20.665 9.93479 20.6013 5.60844 26.272 5.60844C28.5483 5.60844 29.4988 6.32787 29.4988 6.32787L28.7348 8.68311C28.7348 8.68311 27.7856 8.16353 26.5486 8.16353C24.9644 8.16353 23.9535 9.07643 23.9535 10.6826L23.9552 11.8343C23.9552 13.3777 24.9306 14.408 26.5519 14.408C27.6788 14.408 28.7173 13.8835 28.7173 13.8835L29.4794 16.1895C29.4794 16.1895 28.6103 16.9135 26.2879 16.9135C20.8885 16.9135 20.665 13.0319 20.665 11.257H20.665ZM47.9729 5.60434C51.0446 5.60434 52.4722 7.90095 52.4722 11.161C52.4722 15.2679 50.6491 16.9116 47.9711 16.9116C46.4388 16.9116 45.3062 16.2706 44.6943 15.0742V16.6968L41.5832 16.6956V0.374527L44.8864 0.0881717V7.34195C45.3631 6.07288 46.9299 5.60434 47.973 5.60434H47.9729ZM47.0468 8.17245C45.7567 8.17245 44.8864 9.0669 44.8864 10.5883L44.8833 12.1423C44.8814 13.1677 45.4861 14.3674 47.0468 14.3674C49.242 14.3674 49.1834 12.0114 49.1834 11.2267C49.1834 8.58708 48.0139 8.17245 47.0468 8.17245ZM35.2301 5.61334C31.7462 5.61334 29.9069 7.50143 29.9069 10.8568V11.4802C29.9069 15.8351 32.4898 16.9563 35.5692 16.9563C38.5624 16.9563 39.9172 16.1242 39.9172 16.1242L39.2991 13.9081C39.2991 13.9081 37.7054 14.5821 35.9653 14.5821C34.1613 14.5821 33.3855 14.1251 33.1866 12.4019H40.1813V10.6241C40.1813 6.98438 38.117 5.61325 35.2301 5.61325L35.2301 5.61334ZM35.3141 7.83235C36.5201 7.83235 37.3015 8.56742 37.2586 10.2722H33.1927C33.2632 8.47794 34.1059 7.83244 35.3141 7.83244V7.83235ZM59.0586 5.59839C55.4809 5.59839 53.5973 7.60244 53.5973 11.1938C53.5973 16.1214 56.8441 16.9145 59.0646 16.9145C62.3152 16.9145 64.4779 15.175 64.4779 11.2386C64.4779 7.14141 62.0462 5.59839 59.0586 5.59839V5.59839ZM59.0136 8.18136C60.5868 8.18136 61.2102 9.35168 61.2102 10.6838V11.8292C61.2102 13.443 60.3379 14.3764 59.0076 14.3764C57.7635 14.3764 56.8891 13.5033 56.8891 11.8292V10.6838C56.8891 8.89843 57.9296 8.18136 59.0136 8.18136V8.18136ZM71.0584 5.59839C67.4807 5.59839 65.5972 7.60244 65.5972 11.1938C65.5972 16.1214 68.8439 16.9145 71.0644 16.9145C74.315 16.9145 76.4777 15.175 76.4777 11.2386C76.4777 7.14141 74.046 5.59839 71.0584 5.59839V5.59839ZM71.0134 8.18136C72.5866 8.18136 73.2099 9.35168 73.2099 10.6838V11.8292C73.2099 13.443 72.3377 14.3764 71.0075 14.3764C69.7633 14.3764 68.8889 13.5033 68.8889 11.8292V10.6838C68.8889 8.89843 69.9294 8.18136 71.0134 8.18136V8.18136ZM77.726 16.6956V0.374527L81.0387 0.0881717V11.0276L84.3254 5.81493H87.824L84.3954 11.2137L87.956 16.6956H84.4475L81.0387 11.3728V16.6956H77.726Z" fill="#1877F2"/>
</svg>
