<svg width="70" height="28" viewBox="0 0 70 28" fill="none" xmlns="http://www.w3.org/2000/svg">
<path d="M0 0V1.91382H13.6254V0H0ZM15.5559 0V1.91382H34.9727C34.9727 1.91382 32.9893 0 30.3625 0H15.5559ZM38.7816 0V1.91382H50.5285L49.8313 0H38.7816ZM58.9504 0L58.2531 1.91382H69.8934V0H58.9504ZM0 3.72192V5.63574H13.6254V3.72192H0ZM15.5559 3.72463V5.63574H37.2258C37.2258 5.63574 36.9727 4.16278 36.5313 3.72463H15.5559ZM38.7816 3.72463V5.63574H51.8164L51.1711 3.72463H38.7816ZM57.5559 3.72463L56.9105 5.63574H69.8934V3.72463H57.5559ZM3.91562 7.44384V9.36037H9.81641V7.44384H3.91562ZM19.4715 7.44384V9.36037H25.3723V7.44384H19.4715ZM31.1117 7.44384V9.36037H37.0125C37.0125 9.36037 37.3871 8.34825 37.3871 7.44384H31.1117ZM42.6973 7.44384V9.36037H53.159L52.4617 7.44384H42.6973ZM56.2707 7.44384L55.5707 9.36037H66.0844V7.44384H56.2707ZM3.91562 11.1685V13.0823H9.81641V11.1685H3.91562ZM19.4715 11.1685V13.0823H34.5434C34.5434 13.0823 35.8041 12.1003 36.2059 11.1685H19.4715ZM42.6973 11.1685V13.0823H48.598V12.0169L48.9727 13.0823H59.7816L60.1836 12.0169V13.0823H66.0844V11.1685H55.0074L54.4195 12.7895L53.8289 11.1685H42.6973ZM3.91562 14.8904V16.8042H9.81641V14.8904H3.91562ZM19.4715 14.8904V16.8042H36.2059C35.8041 15.8754 34.5434 14.8904 34.5434 14.8904H19.4715ZM42.6973 14.8904V16.8042H48.598V14.8904H42.6973ZM49.6699 14.8904L50.3836 16.8042H58.4883L59.1664 14.8904H49.6699ZM60.1836 14.8904V16.8042H66.0844V14.8904H60.1836ZM3.91562 18.6123V20.5261H9.81641V18.6123H3.91562ZM19.4715 18.6123V20.5261H25.3723V18.6123H19.4715ZM31.1117 18.6123V20.5261H37.3871C37.3871 19.6229 37.0125 18.6123 37.0125 18.6123H31.1117ZM42.6973 18.6123V20.5261H48.598V18.6123H42.6973ZM51.0098 18.6123L51.7016 20.5261H57.1348L57.832 18.6123H51.0098ZM60.1836 18.6123V20.5261H66.0844V18.6123H60.1836ZM0.10664 22.3342V24.2508H13.732V22.3342H0.10664ZM15.5559 22.3342V24.2508H36.5313C36.9727 23.8119 37.2258 22.3342 37.2258 22.3342H15.5559ZM38.8883 22.3342V24.2508H48.598V22.3342H38.8883ZM52.3523 22.3342L53.0633 24.2508H55.8277L56.4949 22.3342H52.3523ZM60.1836 22.3342V24.2508H70V22.3342H60.1836ZM0.10664 26.0589V27.9727H13.732V26.0589H0.10664ZM15.5559 26.0589V27.97H30.3625C32.9893 27.97 34.9727 26.0589 34.9727 26.0589H15.5559ZM38.8883 26.0589V27.9727H48.598V26.0589H38.8883ZM53.7004 26.0589L54.384 27.9673L54.5016 27.97L55.1961 26.0589H53.7004ZM60.1836 26.0589V27.9727H70V26.0589H60.1836Z" fill="#1F70C1"/>
</svg>
