<svg width="135" height="300" viewBox="0 0 135 300" fill="none" xmlns="http://www.w3.org/2000/svg">
<mask id="mask0" mask-type="alpha" maskUnits="userSpaceOnUse" x="12" y="72" width="112" height="148">
<path d="M81 107.2C93.8 107.2 104.067 111.467 111.8 120C119.533 128.4 123.4 140 123.4 154.8V220H89.4V159.4C89.4 151.933 87.4667 146.133 83.6 142C79.7333 137.867 74.5333 135.8 68 135.8C61.4667 135.8 56.2667 137.867 52.4 142C48.5333 146.133 46.6 151.933 46.6 159.4V220H12.4V72H46.6V123.4C50.0667 118.467 54.8 114.533 60.8 111.6C66.8 108.667 73.5333 107.2 81 107.2Z" fill="black"/>
</mask>
<g mask="url(#mask0)">
<path d="M81 107.2C93.8 107.2 104.067 111.467 111.8 120C119.533 128.4 123.4 140 123.4 154.8V220H89.4V159.4C89.4 151.933 87.4667 146.133 83.6 142C79.7333 137.867 74.5333 135.8 68 135.8C61.4667 135.8 56.2667 137.867 52.4 142C48.5333 146.133 46.6 151.933 46.6 159.4V220H12.4V72H46.6V123.4C50.0667 118.467 54.8 114.533 60.8 111.6C66.8 108.667 73.5333 107.2 81 107.2Z" fill="black"/>
<rect x="89" y="160" width="35" height="60" fill="#63F2B0"/>
<rect x="13" y="72" width="34" height="46" fill="#63F2B0"/>
<path d="M12.4133 72L123.301 220H12.4133V72Z" fill="#468FF9"/>
</g>
</svg>
