<svg width="1221" height="385" viewBox="0 0 1221 385" fill="none" xmlns="http://www.w3.org/2000/svg">
<mask id="mask0" mask-type="alpha" maskUnits="userSpaceOnUse" x="116" y="85" width="155" height="206">
<path d="M211.802 134.226C229.492 134.226 243.681 140.122 254.369 151.916C265.057 163.525 270.401 179.557 270.401 200.011V290.12H223.411V206.368C223.411 196.049 220.739 188.033 215.395 182.321C210.052 176.608 202.865 173.752 193.836 173.752C184.806 173.752 177.62 176.608 172.276 182.321C166.932 188.033 164.26 196.049 164.26 206.368V290.12H116.994V85.5777H164.26V156.615C169.051 149.797 175.593 144.361 183.885 140.307C192.177 136.253 201.483 134.226 211.802 134.226Z" fill="black"/>
</mask>
<g mask="url(#mask0)">
<path d="M211.802 134.226C229.492 134.226 243.681 140.122 254.369 151.916C265.057 163.525 270.401 179.557 270.401 200.011V290.12H223.411V206.368C223.411 196.049 220.739 188.033 215.395 182.321C210.052 176.608 202.865 173.752 193.836 173.752C184.806 173.752 177.62 176.608 172.276 182.321C166.932 188.033 164.26 196.049 164.26 206.368V290.12H116.994V85.5777H164.26V156.615C169.051 149.797 175.593 144.361 183.885 140.307C192.177 136.253 201.483 134.226 211.802 134.226Z" fill="black"/>
<rect x="222.858" y="207.197" width="48.3716" height="82.9227" fill="#63F2B1"/>
<rect x="117.823" y="85.5777" width="46.9895" height="63.5741" fill="#63F2B1"/>
<path d="M117.022 85.5777L270.274 290.12H117.022V85.5777Z" fill="#468FF9"/>
</g>
<path d="M397.6 232.4C397.6 235.6 397.4 238.933 397 242.4H319.6C320.133 249.333 322.333 254.667 326.2 258.4C330.2 262 335.067 263.8 340.8 263.8C349.333 263.8 355.267 260.2 358.6 253H395C393.133 260.333 389.733 266.933 384.8 272.8C380 278.667 373.933 283.267 366.6 286.6C359.267 289.933 351.067 291.6 342 291.6C331.067 291.6 321.333 289.267 312.8 284.6C304.267 279.933 297.6 273.267 292.8 264.6C288 255.933 285.6 245.8 285.6 234.2C285.6 222.6 287.933 212.467 292.6 203.8C297.4 195.133 304.067 188.467 312.6 183.8C321.133 179.133 330.933 176.8 342 176.8C352.8 176.8 362.4 179.067 370.8 183.6C379.2 188.133 385.733 194.6 390.4 203C395.2 211.4 397.6 221.2 397.6 232.4ZM362.6 223.4C362.6 217.533 360.6 212.867 356.6 209.4C352.6 205.933 347.6 204.2 341.6 204.2C335.867 204.2 331 205.867 327 209.2C323.133 212.533 320.733 217.267 319.8 223.4H362.6ZM449.842 142V290H415.642V142H449.842ZM508.827 142V290H474.627V142H508.827ZM567.811 142V290H533.611V142H567.811ZM643.395 291.6C632.462 291.6 622.595 289.267 613.795 284.6C605.129 279.933 598.262 273.267 593.195 264.6C588.262 255.933 585.795 245.8 585.795 234.2C585.795 222.733 588.329 212.667 593.395 204C598.462 195.2 605.395 188.467 614.195 183.8C622.995 179.133 632.862 176.8 643.795 176.8C654.729 176.8 664.595 179.133 673.395 183.8C682.195 188.467 689.129 195.2 694.195 204C699.262 212.667 701.795 222.733 701.795 234.2C701.795 245.667 699.195 255.8 693.995 264.6C688.929 273.267 681.929 279.933 672.995 284.6C664.195 289.267 654.329 291.6 643.395 291.6ZM643.395 262C649.929 262 655.462 259.6 659.995 254.8C664.662 250 666.995 243.133 666.995 234.2C666.995 225.267 664.729 218.4 660.195 213.6C655.795 208.8 650.329 206.4 643.795 206.4C637.129 206.4 631.595 208.8 627.195 213.6C622.795 218.267 620.595 225.133 620.595 234.2C620.595 243.133 622.729 250 626.995 254.8C631.395 259.6 636.862 262 643.395 262ZM735.939 291.6C729.939 291.6 725.006 289.867 721.139 286.4C717.406 282.8 715.539 278.4 715.539 273.2C715.539 267.867 717.406 263.4 721.139 259.8C725.006 256.2 729.939 254.4 735.939 254.4C741.806 254.4 746.606 256.2 750.339 259.8C754.206 263.4 756.139 267.867 756.139 273.2C756.139 278.4 754.206 282.8 750.339 286.4C746.606 289.867 741.806 291.6 735.939 291.6ZM769.584 234C769.584 222.533 771.718 212.467 775.984 203.8C780.384 195.133 786.318 188.467 793.784 183.8C801.251 179.133 809.584 176.8 818.784 176.8C826.118 176.8 832.784 178.333 838.784 181.4C844.918 184.467 849.718 188.6 853.184 193.8V142H887.384V290H853.184V274C849.984 279.333 845.384 283.6 839.384 286.8C833.518 290 826.651 291.6 818.784 291.6C809.584 291.6 801.251 289.267 793.784 284.6C786.318 279.8 780.384 273.067 775.984 264.4C771.718 255.6 769.584 245.467 769.584 234ZM853.184 234.2C853.184 225.667 850.784 218.933 845.984 214C841.318 209.067 835.584 206.6 828.784 206.6C821.984 206.6 816.184 209.067 811.384 214C806.718 218.8 804.384 225.467 804.384 234C804.384 242.533 806.718 249.333 811.384 254.4C816.184 259.333 821.984 261.8 828.784 261.8C835.584 261.8 841.318 259.333 845.984 254.4C850.784 249.467 853.184 242.733 853.184 234.2ZM1017.33 232.4C1017.33 235.6 1017.13 238.933 1016.73 242.4H939.327C939.86 249.333 942.06 254.667 945.927 258.4C949.927 262 954.793 263.8 960.527 263.8C969.06 263.8 974.993 260.2 978.327 253H1014.73C1012.86 260.333 1009.46 266.933 1004.53 272.8C999.727 278.667 993.66 283.267 986.327 286.6C978.993 289.933 970.793 291.6 961.727 291.6C950.793 291.6 941.06 289.267 932.527 284.6C923.993 279.933 917.327 273.267 912.527 264.6C907.727 255.933 905.327 245.8 905.327 234.2C905.327 222.6 907.66 212.467 912.327 203.8C917.127 195.133 923.793 188.467 932.327 183.8C940.86 179.133 950.66 176.8 961.727 176.8C972.527 176.8 982.127 179.067 990.527 183.6C998.927 188.133 1005.46 194.6 1010.13 203C1014.93 211.4 1017.33 221.2 1017.33 232.4ZM982.327 223.4C982.327 217.533 980.327 212.867 976.327 209.4C972.327 205.933 967.327 204.2 961.327 204.2C955.593 204.2 950.727 205.867 946.727 209.2C942.86 212.533 940.46 217.267 939.527 223.4H982.327ZM1085.57 258L1109.77 178.4H1146.17L1106.57 290H1064.37L1024.77 178.4H1061.37L1085.57 258Z" fill="#468FF9"/>
</svg>
