<svg width="64" height="45" viewBox="0 0 64 45" fill="none" xmlns="http://www.w3.org/2000/svg">
<g clip-path="url(#clip0)">
<path fill-rule="evenodd" clip-rule="evenodd" d="M0.23999 1.06692H9.90753V26.8139C9.90753 30.8885 11.7857 33.3156 13.2709 34.3561C11.6986 35.7431 6.89374 36.9568 3.31199 34.0092C1.20031 32.2717 0.23999 29.4147 0.23999 26.7271V1.06692ZM60.6582 22.4544V19.7486H63.6068V10.2562H60.3688C59.1258 4.55713 54.0129 0.286598 47.8981 0.286598C40.8539 0.286598 35.1438 5.95341 35.1438 12.9434V35.1112C37.1506 35.3911 39.5415 35.0764 41.5756 33.4024C43.687 31.6647 44.6473 28.808 44.6473 26.1204V25.3037H49.4756V15.8113H44.6473V12.9434H44.6589C44.6589 11.1683 46.109 9.72926 47.8981 9.72926C49.6869 9.72926 51.1428 11.1683 51.1428 12.9434V22.4544C51.1428 29.4444 56.8591 35.1112 63.9029 35.1112V25.6685C62.1142 25.6685 60.6582 24.2295 60.6582 22.4544ZM24.0438 10.2562V24.1873C24.0438 24.9782 23.3826 25.6194 22.5667 25.6194C21.7507 25.6194 21.0895 24.9782 21.0895 24.1873V10.2562H11.5236V26.6406C11.5236 29.588 12.5309 33.3156 17.1148 34.5294C21.7035 35.7444 24.3654 33.2292 24.3654 33.2292C24.1229 34.8862 22.5503 36.0999 20.017 36.36C18.1002 36.5566 15.6489 35.9266 14.4261 35.4064V44.0869C17.5419 44.9987 20.8374 45.2933 24.0625 44.6722C29.9154 43.5453 33.6094 38.6907 33.6094 32.2321V10.2562H24.0438Z" fill="#EA0B8C"/>
</g>
<defs>
<clipPath id="clip0">
<rect width="64" height="45" fill="white"/>
</clipPath>
</defs>
</svg>
