<svg width="56" height="57" viewBox="0 0 56 57" fill="none" xmlns="http://www.w3.org/2000/svg">
<path d="M55.9734 29.0332C55.9734 26.698 55.7828 24.9938 55.3705 23.2266H28.5579V33.7668H44.2963C43.9791 36.3862 42.2656 40.331 38.4578 42.9817L38.4045 43.3346L46.8821 49.8663L47.4695 49.9246C52.8636 44.9699 55.9734 37.68 55.9734 29.0332Z" fill="#4285F4"/>
<path d="M28.5579 56.8042C36.2684 56.8042 42.7414 54.2794 47.4695 49.9246L38.4578 42.9817C36.0463 44.6543 32.8097 45.8219 28.5579 45.8219C21.006 45.8219 14.5964 40.8675 12.3115 34.0194L11.9766 34.0477L3.16142 40.8327L3.04614 41.1514C7.74227 50.4293 17.3885 56.8042 28.5579 56.8042Z" fill="#34A853"/>
<path d="M12.3115 34.0194C11.7086 32.2522 11.3597 30.3586 11.3597 28.4021C11.3597 26.4454 11.7086 24.552 12.2798 22.7848L12.2638 22.4084L3.33813 15.5145L3.04609 15.6526C1.11059 19.5027 0 23.8262 0 28.4021C0 32.978 1.11059 37.3013 3.04609 41.1514L12.3115 34.0194Z" fill="#FBBC05"/>
<path d="M28.5579 10.9821C33.9203 10.9821 37.5375 13.2858 39.6001 15.211L47.6598 7.38455C42.7099 2.80866 36.2684 0 28.5579 0C17.3885 0 7.74227 6.37464 3.04614 15.6526L12.2798 22.7848C14.5964 15.9367 21.006 10.9821 28.5579 10.9821Z" fill="#EB4335"/>
</svg>
