<svg width="175" height="22" viewBox="0 0 175 22" fill="none" xmlns="http://www.w3.org/2000/svg">
<path d="M136.704 5.65104C136.086 5.65104 135.578 5.85916 135.169 6.27387C134.762 6.68912 134.562 7.15708 134.562 7.68663C134.562 8.35868 134.86 9.10547 135.458 9.9349C134.466 10.5974 133.788 11.1558 133.438 11.5907C133.088 12.0267 132.921 12.5597 132.921 13.201C132.921 13.7619 133.065 14.247 133.346 14.6745C133.627 15.1025 133.978 15.4405 134.425 15.6771C134.872 15.9137 135.347 16.0417 135.838 16.0417C136.838 16.0417 137.795 15.5363 138.694 14.5378C139.45 15.5363 140.326 16.0417 141.322 16.0417C141.781 16.0417 142.187 15.904 142.537 15.6467C142.886 15.3899 143.113 15.0468 143.221 14.6289H142.856C142.596 15.0878 142.227 15.3277 141.747 15.3277C141.394 15.3277 141.071 15.2187 140.76 15.0087C140.449 14.7992 140.014 14.3021 139.468 13.52C139.698 13.2153 139.954 12.7423 140.228 12.092C140.554 11.3046 140.877 10.7662 141.185 10.4818C141.494 10.1968 141.85 10.001 142.263 9.88932V9.52474H138.982V9.88932C139.786 9.98077 140.182 10.3076 140.182 10.8919C140.182 11.1354 140.093 11.4759 139.924 11.9097C139.756 12.3441 139.531 12.7638 139.24 13.1706C138.433 12.0253 137.581 10.843 136.673 9.61589C138.139 8.87844 138.861 8.12147 138.861 7.33724C138.861 6.8332 138.651 6.41728 138.207 6.10677C137.764 5.79627 137.254 5.65104 136.704 5.65104ZM150.649 5.69662C149.756 5.69662 148.935 5.90048 148.188 6.31945C147.441 6.73841 146.858 7.38365 146.441 8.2487C146.024 9.11322 145.818 10.0341 145.818 11.0135C145.818 12.5048 146.265 13.7072 147.17 14.6137C148.075 15.5202 149.253 15.9657 150.679 15.9657C152.029 15.9657 153.138 15.4721 154.006 14.4922C154.236 14.7947 154.388 15.1443 154.477 15.5404H154.811V12.0616H154.477C154.419 12.6364 154.223 13.2385 153.9 13.8542C153.578 14.4704 153.146 14.9027 152.593 15.1606C152.039 15.4185 151.497 15.5404 150.968 15.5404C149.978 15.5404 149.142 15.1482 148.477 14.3555C147.813 13.5622 147.489 12.4252 147.489 10.9375C147.489 9.36637 147.792 8.15064 148.401 7.30686C149.01 6.46201 149.827 6.04601 150.862 6.04601C151.706 6.04601 152.467 6.31063 153.14 6.83594C153.813 7.36124 154.259 8.28455 154.477 9.61589H154.811L154.72 5.86372H154.386C154.341 6.30661 154.22 6.74183 154.006 7.15495C153.71 6.78649 153.253 6.4554 152.654 6.15235C152.054 5.84928 151.386 5.69662 150.649 5.69662ZM92.3156 5.727C91.4229 5.727 90.6017 5.93086 89.8546 6.34983C89.1071 6.76879 88.525 7.41403 88.1077 8.27908C87.6903 9.1436 87.4848 10.0639 87.4848 11.0438C87.4848 12.5347 87.9319 13.737 88.8368 14.6441C89.7407 15.5506 90.9037 15.9961 92.3308 15.9961C93.6791 15.9961 94.7899 15.5182 95.6576 14.5378C95.8883 14.8414 96.056 15.1893 96.1437 15.5859H96.4779V12.092H96.1437C96.0852 12.6673 95.8897 13.2689 95.5664 13.8846C95.2442 14.5008 94.8135 14.9331 94.26 15.191C93.706 15.4488 93.1636 15.5859 92.6346 15.5859C91.6446 15.5859 90.8084 15.1781 90.1433 14.3859C89.4781 13.5926 89.1559 12.4561 89.1558 10.9679C89.1558 9.39676 89.458 8.19621 90.0673 7.35243C90.6766 6.50812 91.4946 6.07639 92.5282 6.07639C93.3736 6.07639 94.1348 6.34102 94.8069 6.86632C95.4795 7.39162 95.9246 8.31493 96.1437 9.64627H96.4779L96.3868 5.90929H96.0525C96.0079 6.35218 95.8719 6.77221 95.6576 7.18533C95.362 6.81687 94.9205 6.48526 94.3208 6.18273C93.7226 5.87967 93.053 5.727 92.3156 5.727ZM20.0521 5.75738C19.4933 5.75738 18.7112 5.77933 17.7127 5.81814L16.467 5.86372V6.19792H16.6493C17.155 6.19792 17.4847 6.24691 17.6367 6.33464C17.7893 6.4229 17.8812 6.57587 17.9254 6.80556C17.9695 7.03524 18.0013 7.54976 18.0013 8.33985V13.201C18.0013 14.0309 17.9695 14.569 17.9254 14.796C17.8812 15.023 17.7858 15.1899 17.6216 15.2973C17.4573 15.4047 17.1522 15.4492 16.7253 15.4492H16.467V15.7834H21.0395V15.4492H20.7053C20.2587 15.4492 19.956 15.4002 19.7939 15.2821C19.6317 15.1646 19.5267 14.9777 19.49 14.7352C19.4528 14.4928 19.4445 13.9847 19.4445 13.201V11.1046H20.5382C21.6771 11.1046 22.4713 10.9999 22.9232 10.7856C23.3757 10.5708 23.7137 10.2585 23.9562 9.84375C24.1981 9.42851 24.3208 8.9424 24.3208 8.40061C24.3208 7.77641 24.1443 7.26106 23.7891 6.85113C23.4339 6.4412 22.9775 6.16154 22.4219 6.00044C21.8663 5.83934 21.0799 5.75738 20.0521 5.75738ZM10.6489 5.86372V6.19792H10.8768C11.3803 6.19792 11.7001 6.24691 11.849 6.33464C11.9984 6.42236 12.1065 6.57693 12.1528 6.80556C12.1991 7.03471 12.2136 7.55083 12.2136 8.33985V11.7122C12.2136 12.8176 12.1854 13.6176 12.1072 14.0972C12.0301 14.5779 11.7875 14.9898 11.4084 15.3429C11.0294 15.6959 10.5649 15.8746 10.0109 15.8746C9.73866 15.8746 9.51231 15.825 9.32728 15.7378C9.14332 15.6507 9.05385 15.5285 9.05385 15.3733C9.05385 15.3148 9.0761 15.2315 9.1298 15.115C9.18882 14.9837 9.22095 14.857 9.22095 14.7352C9.22095 14.5311 9.15342 14.3596 9.00827 14.2188C8.86366 14.0773 8.67726 14.0061 8.4614 14.0061C8.25032 14.0061 8.07486 14.0918 7.92971 14.2491C7.7851 14.4065 7.71704 14.5962 7.71704 14.8264C7.71704 15.2081 7.92113 15.5368 8.32468 15.8138C8.72929 16.0903 9.29212 16.224 10.0413 16.224C10.708 16.224 11.2999 16.1141 11.8034 15.8898C12.3069 15.6649 12.7172 15.349 13.0187 14.9327C13.3202 14.5159 13.4991 14.0807 13.5656 13.6415C13.631 13.2029 13.6567 12.567 13.6567 11.7274V8.33985C13.6567 7.51574 13.6838 6.99476 13.7327 6.77518C13.781 6.55559 13.8855 6.3992 14.0365 6.31945C14.187 6.2381 14.5065 6.19792 14.9935 6.19792H15.2366V5.86372H10.6489ZM25.6576 5.86372V6.19792H25.931C26.4366 6.19792 26.7533 6.24691 26.9032 6.33464C27.0532 6.4229 27.1608 6.57587 27.2071 6.80556C27.2538 7.03524 27.2678 7.54923 27.2678 8.33985V12.6541C27.2678 13.4739 27.2509 14.0372 27.1919 14.3403C27.1334 14.6428 26.9585 14.9087 26.6906 15.115C26.4231 15.3224 26.0851 15.4253 25.6576 15.4492V15.7834H29.2275V15.4492C28.7686 15.42 28.4177 15.3016 28.1641 15.0846C27.9094 14.8677 27.7567 14.6133 27.7084 14.3251C27.6594 14.0369 27.6324 13.4951 27.6324 12.6997V6.8967L31.5821 15.7834H31.9315L35.8355 6.8967V13.2161C35.8355 14.0461 35.821 14.569 35.7748 14.796C35.7285 15.023 35.62 15.1894 35.4558 15.2973C35.2909 15.4047 34.9974 15.4492 34.5747 15.4492H34.2253V15.7834H38.9953V15.4492H38.5547C38.1049 15.4492 37.8017 15.3996 37.6433 15.2821C37.4838 15.1651 37.3782 14.9918 37.3394 14.7504C37.3001 14.5091 37.2787 13.982 37.2787 13.201V8.33985C37.2787 7.5152 37.3025 6.99529 37.3546 6.77518C37.4051 6.55559 37.5069 6.39973 37.6584 6.31945C37.81 6.23916 38.1421 6.19792 38.6307 6.19792H38.9953V5.86372H35.9267L32.3264 14.082L28.6806 5.86372H25.6576ZM136.734 6.03082C137.107 6.03082 137.402 6.15698 137.63 6.41059C137.857 6.66474 137.98 6.98648 137.98 7.398C137.98 8.08813 137.462 8.73337 136.445 9.32726C135.821 8.46965 135.519 7.78932 135.519 7.29167C135.519 6.93119 135.63 6.63891 135.853 6.3954C136.076 6.15242 136.364 6.03082 136.734 6.03082ZM20.204 6.10677C21.1089 6.10677 21.7606 6.29962 22.1637 6.68403C22.5667 7.0679 22.7713 7.66977 22.7713 8.49176C22.7713 9.03035 22.6564 9.49208 22.4219 9.85894C22.1869 10.2258 21.8923 10.457 21.5408 10.5729C21.1889 10.6878 20.73 10.7552 20.1584 10.7552H19.4445V6.13715C19.6205 6.11748 19.8722 6.10677 20.204 6.10677ZM118.429 7.99045C117.848 7.99045 117.38 8.16006 117.001 8.52214C116.622 8.88421 116.424 9.34541 116.424 9.88932C116.424 10.2461 116.523 10.5772 116.697 10.8919C116.871 11.2072 117.101 11.4705 117.411 11.6667C117.722 11.8639 118.197 12.0881 118.809 12.3503C119.494 12.6432 119.964 12.9159 120.221 13.1706C120.48 13.429 120.601 13.7453 120.601 14.1276C120.601 14.5062 120.455 14.8549 120.161 15.1606C119.866 15.4663 119.451 15.6163 118.915 15.6163C117.722 15.6163 116.971 14.8144 116.652 13.2161H116.363V15.6771H116.652C116.712 15.3575 116.8 15.1087 116.925 14.9327C117.485 15.5739 118.183 15.8898 119.021 15.8898C119.75 15.8898 120.332 15.6905 120.768 15.2821C121.204 14.8727 121.421 14.34 121.421 13.6871C121.421 13.2745 121.328 12.9086 121.148 12.5933C120.967 12.2786 120.733 12.0423 120.434 11.8642C120.135 11.686 119.649 11.4442 118.991 11.1502C118.303 10.8402 117.842 10.5603 117.578 10.3147C117.31 10.0733 117.168 9.78291 117.168 9.4336C117.168 9.14436 117.274 8.87252 117.487 8.62847C117.701 8.38549 118.032 8.26389 118.49 8.26389C118.97 8.26389 119.402 8.43502 119.766 8.76519C120.131 9.09643 120.382 9.54084 120.525 10.1172H120.768V8.12717H120.525C120.503 8.36696 120.409 8.58981 120.237 8.79557C119.936 8.46593 119.641 8.2471 119.356 8.14236C119.069 8.03709 118.754 7.99045 118.429 7.99045ZM43.6741 8.00564C42.498 8.00564 41.5286 8.35602 40.7422 9.06901C39.9559 9.78147 39.5573 10.732 39.5573 11.9097C39.5573 13.1177 39.9518 14.0801 40.727 14.8112C41.5022 15.5433 42.4943 15.9201 43.7045 15.9201C44.947 15.9201 45.9498 15.5433 46.7123 14.8112C47.4742 14.0801 47.8516 13.1367 47.8516 11.9553C47.8516 10.7361 47.4469 9.77456 46.6515 9.06901C45.8556 8.364 44.8608 8.00564 43.6741 8.00564ZM61.3108 8.00564C60.123 8.00564 59.1922 8.41466 58.5005 9.23611C57.8087 10.057 57.4523 11.0162 57.4523 12.1072C57.4523 13.2099 57.8229 14.1233 58.546 14.8416C59.2686 15.5599 60.1747 15.9201 61.2652 15.9201C61.8081 15.9201 62.3899 15.7943 63.0274 15.5556C63.4953 15.3801 63.8785 15.2973 64.1667 15.2973C64.2379 15.2973 64.321 15.2971 64.4098 15.3125V14.5074C64.4098 13.8481 64.429 13.4329 64.4705 13.2617C64.5115 13.0911 64.599 12.9553 64.7288 12.8819C64.858 12.8086 65.1094 12.7756 65.4731 12.7756V12.5174H62.1767V12.7756H62.359C62.6615 12.7756 62.8686 12.8042 62.9818 12.8516C63.095 12.8978 63.1701 12.9884 63.2249 13.125C63.2796 13.2622 63.316 13.5354 63.316 13.9453C63.316 14.2946 63.2501 14.5826 63.1337 14.8112C63.0183 15.0404 62.8131 15.229 62.4957 15.3885C62.1777 15.549 61.8205 15.6315 61.4323 15.6315C60.6741 15.6315 60.0297 15.3601 59.5183 14.796C59.0062 14.233 58.7587 13.2623 58.7587 11.9097C58.7587 10.5534 59.0316 9.61642 59.5638 9.0842C60.0961 8.55252 60.7156 8.27908 61.4323 8.27908C62.1256 8.27908 62.709 8.50755 63.1945 8.96268C63.6804 9.41833 63.9823 10.036 64.0907 10.816H64.349V8.26389H64.0907C64.0567 8.57174 63.9732 8.8634 63.8477 9.12978C63.1778 8.3817 62.3327 8.00564 61.3108 8.00564ZM160.796 8.00564C159.62 8.00564 158.651 8.35602 157.865 9.06901C157.078 9.78147 156.68 10.732 156.68 11.9097C156.68 13.1177 157.059 14.0801 157.834 14.8112C158.609 15.5433 159.602 15.9201 160.812 15.9201C162.055 15.9201 163.057 15.5433 163.819 14.8112C164.581 14.0801 164.974 13.1367 164.974 11.9553C164.974 10.7361 164.569 9.77456 163.774 9.06901C162.978 8.364 161.983 8.00564 160.796 8.00564ZM111.365 8.02083L109.147 13.3073C108.988 13.6874 108.882 13.9047 108.859 13.9605C108.623 14.5586 108.432 14.9447 108.266 15.1302C108.1 15.3163 107.846 15.4422 107.507 15.4948V15.753H109.8V15.4948C109.553 15.4948 109.349 15.4311 109.193 15.3125C109.038 15.1945 108.965 15.0252 108.965 14.796C108.965 14.5817 109.113 14.1312 109.405 13.4288L109.603 12.9427H112.489L113.082 14.3555C113.254 14.7649 113.34 15.0022 113.34 15.0846C113.34 15.2457 113.271 15.3646 113.142 15.4188C113.013 15.4731 112.764 15.4948 112.398 15.4948V15.753H115.391V15.4948C115.123 15.4687 114.931 15.401 114.798 15.2973C114.665 15.1947 114.558 15.0517 114.479 14.872L114.13 14.082L111.593 8.02083H111.365ZM51.6949 8.05122C51.268 8.05122 50.6894 8.06489 49.9631 8.09679L48.8846 8.14236V8.40061H49.0061C49.399 8.40061 49.6623 8.43942 49.7808 8.50695C49.8983 8.57447 49.9747 8.69554 50.0087 8.87153C50.0433 9.04752 50.0543 9.43405 50.0543 10.0412V13.7934C50.0543 14.4309 50.0427 14.8338 50.0087 15.0087C49.9752 15.1831 49.8917 15.3066 49.7657 15.3885C49.6402 15.4709 49.409 15.51 49.0821 15.51H48.839V15.7682H52.5V15.51H52.1354C51.7893 15.51 51.5432 15.4631 51.4215 15.3733C51.2987 15.2839 51.2213 15.1481 51.1936 14.9631C51.1654 14.7797 51.1632 14.3894 51.1632 13.7934V12.1224H51.467C51.6717 12.1224 51.8103 12.1601 51.9076 12.2287C52.0038 12.2979 52.1819 12.475 52.4393 12.7908C52.6961 13.105 52.9444 13.4353 53.1836 13.7782C53.9285 14.8512 54.4931 15.5125 54.8546 15.7682H56.8902V15.51C56.4441 15.4951 56.0632 15.37 55.7357 15.1302C55.4093 14.8894 54.959 14.3831 54.3837 13.6111C53.6776 12.6573 53.1522 12.1079 52.8342 11.9553C53.5403 11.8692 54.0808 11.6551 54.4445 11.3021C54.8092 10.949 54.9913 10.5106 54.9913 10.0109C54.9913 9.58285 54.8467 9.22495 54.566 8.9171C54.2853 8.60819 53.9263 8.38428 53.4723 8.2487C53.0171 8.11365 52.4207 8.05122 51.6949 8.05122ZM69.8785 8.05122L67.6454 13.3225C67.4854 13.7021 67.397 13.9199 67.372 13.9757C67.1381 14.5738 66.9308 14.975 66.7644 15.1606C66.5979 15.3467 66.3592 15.4573 66.02 15.51V15.7682H68.3138V15.51C68.0655 15.51 67.8614 15.4614 67.7062 15.3429C67.5504 15.2243 67.4783 15.0404 67.4783 14.8112C67.4783 14.5969 67.6259 14.1464 67.9189 13.444L68.1163 12.9579H71.0026L71.5799 14.3707C71.7522 14.7801 71.8533 15.0326 71.8533 15.115C71.8533 15.2761 71.7856 15.3798 71.6558 15.434C71.5266 15.4883 71.2784 15.51 70.9115 15.51V15.7682H73.9041V15.51C73.6377 15.4834 73.4446 15.4314 73.3117 15.3277C73.1787 15.2251 73.0708 15.0821 72.9927 14.9023L72.6433 14.0972L70.1064 8.05122H69.8785ZM98.2552 8.12717V8.38542H98.4071C98.7963 8.38542 99.0361 8.42476 99.1515 8.49176C99.2664 8.55928 99.3448 8.67982 99.3794 8.85634C99.4155 9.03233 99.4401 9.41939 99.4401 10.026V13.763C99.4401 14.401 99.4155 14.8186 99.3794 14.9935C99.3448 15.1679 99.2623 15.2914 99.1363 15.3733C99.0098 15.4557 98.7813 15.4948 98.4527 15.4948H98.2552V15.753H101.719V15.4948H101.521C101.176 15.4948 100.931 15.4479 100.807 15.3581C100.684 15.2677 100.609 15.1335 100.579 14.9479C100.549 14.7618 100.534 14.3649 100.534 13.763V11.9249H104.514V13.763C104.514 14.4021 104.502 14.8034 104.468 14.9783C104.435 15.1532 104.349 15.2903 104.225 15.3733C104.1 15.4557 103.877 15.4948 103.557 15.4948H103.299V15.753H106.747V15.4948H106.58C106.24 15.4948 106.005 15.4479 105.881 15.3581C105.758 15.2682 105.681 15.1335 105.653 14.9479C105.625 14.7624 105.608 14.3633 105.608 13.763V10.026C105.608 9.39334 105.63 8.9945 105.668 8.82596C105.708 8.65741 105.781 8.53771 105.896 8.47656C106.013 8.41436 106.266 8.38542 106.641 8.38542H106.747V8.12717H103.299V8.38542H103.496C103.879 8.38542 104.127 8.42476 104.24 8.49176C104.354 8.55928 104.435 8.67982 104.468 8.85634C104.502 9.03233 104.514 9.41939 104.514 10.026V11.5451H100.534V10.026C100.534 9.39334 100.555 8.9945 100.595 8.82596C100.635 8.65741 100.72 8.53771 100.838 8.47656C100.955 8.41436 101.191 8.38542 101.567 8.38542H101.719V8.12717H98.2552ZM122.865 8.12717V8.38542C123.235 8.38542 123.478 8.41838 123.594 8.49176C123.709 8.56406 123.79 8.6881 123.822 8.87153C123.855 9.05496 123.867 9.44544 123.867 10.026V13.763C123.867 14.4005 123.851 14.8073 123.822 14.9631C123.791 15.1184 123.719 15.2413 123.609 15.3429C123.499 15.4439 123.27 15.4948 122.895 15.4948H122.728V15.753H129.017L129.184 13.3832H128.926C128.791 13.9543 128.597 14.4 128.364 14.7201C128.13 15.0412 127.891 15.2498 127.635 15.3429C127.376 15.4359 127.048 15.4796 126.647 15.4796H126.085C125.576 15.4796 125.26 15.3955 125.143 15.2365C125.027 15.0776 124.976 14.5443 124.976 13.6415V11.8338H125.796C126.121 11.8338 126.359 11.8661 126.495 11.9097C126.631 11.9528 126.728 12.0391 126.799 12.1832C126.87 12.3283 126.905 12.6106 126.905 13.0339H127.164V10.4362H126.905C126.905 10.81 126.876 11.0671 126.829 11.1957C126.783 11.3249 126.687 11.4206 126.541 11.4844C126.394 11.5482 126.135 11.5755 125.766 11.5755H124.976V8.38542H126.024C126.553 8.38542 126.925 8.41861 127.164 8.47656C127.402 8.53505 127.613 8.66448 127.786 8.88672C127.959 9.1095 128.108 9.49489 128.227 10.026H128.485L128.303 8.12717H122.865ZM74.8915 8.14236V8.40061C75.303 8.40061 75.5624 8.4354 75.6815 8.49176C75.8006 8.54811 75.8849 8.67321 75.9397 8.87153C75.9945 9.06985 76.0308 9.45585 76.0308 10.0412V14.0972C76.0308 14.5582 76.0052 14.8392 75.9701 14.9631C75.9345 15.0865 75.8262 15.2051 75.6359 15.3125C75.4461 15.4199 75.1766 15.4834 74.8156 15.51V15.7682H77.6411V15.51C77.2381 15.51 76.9463 15.4593 76.7448 15.3429C76.5433 15.227 76.4086 15.1024 76.365 14.9631C76.322 14.8243 76.3043 14.5359 76.3043 14.0972V8.79557L81.7275 15.9505H81.9553V9.63108C81.9553 9.30462 81.9813 9.08466 82.0313 8.94748C82.0813 8.81084 82.1978 8.6802 82.3807 8.5829C82.5646 8.4856 82.8212 8.42719 83.1402 8.40061V8.14236H80.3907V8.40061C80.6905 8.40061 80.937 8.44345 81.1502 8.52214C81.3639 8.60083 81.5064 8.70663 81.5756 8.84115C81.6447 8.97673 81.6819 9.21804 81.6819 9.55512V14.1124L77.1702 8.14236H74.8915ZM43.6893 8.27908C44.6181 8.27908 45.3274 8.60394 45.816 9.23611C46.3046 9.86829 46.5452 10.7691 46.5452 11.9553C46.5452 13.175 46.2963 14.0892 45.8008 14.7049C45.3042 15.3206 44.6348 15.6315 43.7804 15.6315C42.8058 15.6315 42.0799 15.3206 41.5929 14.7049C41.1059 14.0892 40.8637 13.1824 40.8637 11.9553C40.8637 10.7468 41.1059 9.82302 41.5929 9.20573C42.0799 8.58845 42.7742 8.27908 43.6893 8.27908ZM160.812 8.27908C161.741 8.27908 162.45 8.60394 162.938 9.23611C163.428 9.86829 163.668 10.7691 163.668 11.9553C163.668 13.175 163.419 14.0892 162.923 14.7049C162.427 15.3206 161.757 15.6315 160.903 15.6315C159.928 15.6315 159.187 15.3206 158.7 14.7049C158.213 14.0892 157.971 13.1824 157.971 11.9553C157.971 10.7468 158.213 9.82302 158.7 9.20573C159.187 8.58845 159.897 8.27908 160.812 8.27908ZM51.6341 8.32465C52.5215 8.32465 53.1011 8.48803 53.3659 8.81077C53.6302 9.1335 53.7609 9.56553 53.7609 10.102C53.7609 10.4104 53.717 10.6662 53.6394 10.8767C53.5612 11.0868 53.4554 11.264 53.3203 11.3932C53.1853 11.523 53.0072 11.6149 52.7887 11.6819C52.5707 11.7494 52.3101 11.788 52.0139 11.8034C51.7178 11.8183 51.4408 11.8269 51.1632 11.8338V8.33985C51.3408 8.32443 51.497 8.32465 51.6341 8.32465ZM111.046 9.4336L112.383 12.6541H109.724L111.046 9.4336ZM69.5595 9.44879L70.8963 12.6845H68.2227L69.5595 9.44879ZM135.686 10.2539C136.462 11.2673 137.393 12.5844 138.466 14.2188C137.861 14.9222 137.202 15.2821 136.491 15.2821C135.85 15.2821 135.266 15.0054 134.759 14.4466C134.252 13.8883 134 13.282 134 12.6541C134 12.2468 134.146 11.8297 134.44 11.3932C134.733 10.9567 135.151 10.5804 135.686 10.2539ZM166.448 14.3099C166.218 14.3099 166.018 14.3892 165.855 14.553C165.691 14.7167 165.612 14.9168 165.612 15.1454C165.612 15.3698 165.694 15.5688 165.855 15.7378C166.016 15.9069 166.214 15.9809 166.448 15.9809C166.677 15.9809 166.874 15.9011 167.04 15.7378C167.206 15.5736 167.283 15.3793 167.283 15.1454C167.283 14.9168 167.203 14.7167 167.04 14.553C166.875 14.3892 166.682 14.3099 166.448 14.3099Z" fill="black"/>
</svg>
