<svg width="58" height="58" viewBox="0 0 58 58" fill="none" xmlns="http://www.w3.org/2000/svg">
<path d="M28.9987 0.0956421C13.0318 0.0956421 0.0874023 13.0397 0.0874023 29.0066C0.0874023 44.9742 13.0318 57.9171 28.9987 57.9171C44.9673 57.9171 57.9103 44.9742 57.9103 29.0066C57.9103 13.0407 44.9673 0.097023 28.9983 0.097023L28.9987 0.0956421V0.0956421ZM42.2572 41.7935C41.7393 42.6428 40.6277 42.9121 39.7784 42.3908C32.9903 38.2444 24.445 37.3054 14.3813 39.6047C13.4115 39.8256 12.4449 39.218 12.2239 38.2479C12.0019 37.2778 12.6071 36.3111 13.5793 36.0902C24.5924 33.573 34.0392 34.6574 41.6599 39.3147C42.5092 39.836 42.7785 40.9442 42.2572 41.7935V41.7935ZM45.7959 33.9203C45.1434 34.9819 43.7555 35.3168 42.6957 34.6643C34.9243 29.8866 23.0782 28.5032 13.8862 31.2934C12.6941 31.6535 11.435 30.9817 11.0732 29.7916C10.7142 28.5995 11.3864 27.3429 12.5764 26.9804C23.0761 23.7945 36.1292 25.3377 45.0536 30.8218C46.1135 31.4743 46.4484 32.8622 45.7959 33.9207V33.9203ZM46.0997 25.723C36.7817 20.1885 21.4083 19.6796 12.5118 22.3797C11.0832 22.813 9.57247 22.0065 9.13955 20.5779C8.70662 19.1486 9.5124 17.6389 10.942 17.2046C21.1545 14.1044 38.1316 14.7034 48.8595 21.072C50.1473 21.8346 50.5685 23.4941 49.8055 24.7774C49.046 26.0624 47.3819 26.486 46.1011 25.723H46.0997Z" fill="#1ED760"/>
</svg>
